Coordinates
version=1
nRows=37
nColumns=19
inDegrees=yes

Units are S.I. units (second, meters, Newtons, ...)
If the header above contains a line with 'inDegrees', this indicates whether rotational values are in degrees (yes) or radians (no).

endheader
time	pelvis_tilt	pelvis_list	pelvis_rotation	pelvis_tx	pelvis_ty	pelvis_tz	hip_flexion_r	hip_adduction_r	hip_rotation_r	knee_angle_r	knee_angle_r_beta	ankle_angle_r	hip_flexion_l	hip_adduction_l	hip_rotation_l	knee_angle_l	knee_angle_l_beta	ankle_angle_l
     15.26666667	     -3.18595200	     -7.69877301	     -1.88462252	      2.44083223	      0.94165661	      1.06424062	     24.30551044	     11.79074888	    -13.92208352	      7.86354208	      0.13724470	      7.61148114	    -17.89554778	    -14.23941784	    -15.71549880	     56.25177961	      0.98177876	     -9.82254545
     15.27333333	     -2.38465883	     -8.46203075	     -1.67174997	      2.44040119	      0.93773930	      1.06445068	     23.70159660	     12.33175728	    -14.87523379	     10.07794506	      0.17589332	      7.35132175	    -17.55661440	    -15.51027175	    -15.09863473	     60.01966110	      1.04754070	     -9.13314746
     15.28000000	     -1.77771798	     -9.20023243	     -1.48792330	      2.43977928	      0.93325599	      1.06458513	     23.42119991	     12.77316600	    -15.87445077	     12.73473205	      0.22226300	      7.01013059	    -16.88465130	    -16.69892705	    -14.33018791	     63.79643978	      1.11345793	     -8.38440872
     15.28666667	     -1.01113563	    -10.03013812	     -1.38864560	      2.43906469	      0.92863382	      1.06463914	     23.00181797	     13.29013850	    -16.75066641	     15.64825711	      0.27311361	      6.72727734	    -16.37994273	    -17.93213395	    -13.69573109	     67.47526546	      1.17766555	     -7.64507995
     15.29333333	     -0.25326263	    -10.88777626	     -1.32067738	      2.43815118	      0.92377097	      1.06457176	     22.62742652	     13.79155167	    -17.58884472	     18.76892511	      0.32757954	      6.57543060	    -15.78765583	    -19.13695483	    -13.01461804	     71.08928008	      1.24074200	     -6.85761626
     15.30000000	      0.76762094	    -11.84277455	     -1.34485566	      2.43712358	      0.91905961	      1.06440881	     21.92094162	     14.42483296	    -18.19654804	     21.93282627	      0.38280003	      6.72088791	    -15.50734665	    -20.37133823	    -12.49433030	     74.55168396	      1.30117235	     -6.00579458
     15.30666667	      1.07023099	    -12.53787983	     -1.30504945	      2.43569866	      0.91363132	      1.06402764	     22.05497254	     14.67649673	    -18.89231369	     25.30727335	      0.44169524	      7.20677420	    -14.08547546	    -21.28156429	    -11.39947697	     78.10796207	      1.36324111	     -5.11859222
     15.31333333	      1.58388075	    -13.24392073	     -1.36225533	      2.43411983	      0.90860326	      1.06359291	     21.84806686	     15.01002159	    -19.28633688	     28.57229076	      0.49868055	      8.09316511	    -12.88690220	    -22.11153377	    -10.41988887	     81.45642342	      1.42168279	     -4.19464598
     15.32000000	      2.42636207	    -14.01439078	     -1.57708108	      2.43242135	      0.90422086	      1.06315185	     21.11393991	     15.53407118	    -19.26697489	     31.61235404	      0.55173966	      9.33901151	    -12.12986545	    -22.93906624	     -9.75615579	     84.53694854	      1.47544809	     -3.23124322
     15.32666667	      2.03950541	    -14.21766067	     -1.68884360	      2.43022469	      0.89901362	      1.06260546	     21.70545877	     15.38420780	    -19.35351697	     34.70246935	      0.60567235	     10.88925516	     -9.43218771	    -23.02840728	     -8.07178171	     87.75431639	      1.53160175	     -2.34672135
     15.33333333	      2.04313548	    -14.37943007	     -1.84287279	      2.42797046	      0.89479966	      1.06208373	     21.63594461	     15.32524649	    -19.09653834	     37.41713895	      0.65305227	     12.74200208	     -7.18277782	    -23.00218121	     -6.60788958	     90.62131532	      1.58164032	     -1.51102826
     15.34000000	      1.92473695	    -14.34014260	     -1.98198989	      2.42546981	      0.89108937	      1.06149393	     21.50548959	     15.12296252	    -18.67393181	     39.80759747	      0.69477364	     14.72570581	     -4.62497564	    -22.66411412	     -5.01878518	     93.27971484	      1.62803815	     -0.71229803
     15.34666667	      1.38384406	    -14.11052402	     -2.16681644	      2.42292315	      0.88759625	      1.06107702	     21.60703344	     14.82828465	    -18.06946788	     41.82632351	      0.73000706	     16.79276970	     -1.47480110	    -22.06238969	     -3.34455294	     95.71120431	      1.67047565	     -0.04185917
     15.35333333	      0.89234625	    -13.64861913	     -2.19800285	      2.42031248	      0.88490957	      1.06057257	     21.42876928	     14.31327228	    -17.45903571	     43.43755496	      0.75812835	     18.82795064	      1.76002577	    -21.11125615	     -1.57668151	     97.80946261	      1.70709716	      0.49387506
     15.36000000	      0.28595902	    -13.03689847	     -2.14751015	      2.41777969	      0.88280757	      1.06011504	     21.12744122	     13.68572624	    -16.83424197	     44.60623678	      0.77852570	     20.76688853	      5.17700071	    -19.94335492	      0.16532533	     99.56625858	      1.73775904	      0.90036957
     15.36666667	     -0.25602430	    -12.31259363	     -1.96004942	      2.41546209	      0.88152756	      1.05958560	     20.49631979	     12.95324652	    -16.27530147	     45.31307163	      0.79086229	     22.52062740	      8.51218121	    -18.58824452	      1.81554372	    100.90776235	      1.76117269	      1.17731872
     15.37333333	     -0.73481713	    -11.52244115	     -1.65399836	      2.41347508	      0.88102589	      1.05907476	     19.53095770	     12.16484399	    -15.80127317	     45.54206988	      0.79485907	     24.04631049	     11.71467979	    -17.14497958	      3.31344565	    101.81972267	      1.77708940	      1.35866578
     15.38000000	     -1.17071946	    -10.71613194	     -1.27557031	      2.41187464	      0.88124835	      1.05863984	     18.26619543	     11.38835782	    -15.40361840	     45.31088498	      0.79082413	     25.28148753	     14.74693402	    -15.70654959	      4.59294413	    102.29826301	      1.78544151	      1.48481577
     15.38666667	     -1.28910255	     -9.88327299	     -0.76562298	      2.41100968	      0.88259793	      1.05814823	     16.34589111	     10.58678158	    -15.15724653	     44.54764413	      0.77750306	     26.23071062	     17.21932126	    -14.27847656	      5.60435727	    102.24264045	      1.78447071	      1.61047129
     15.39333333	     -1.56738152	     -9.14955465	     -0.62603252	      2.41078466	      0.88445887	      1.05838451	     14.34226968	     10.09776449	    -14.50431454	     43.33044380	      0.75625891	     26.75537755	     19.51755018	    -13.26098621	      5.95482141	    101.72261009	      1.77539447	      1.86900795
     15.40000000	     -1.55525410	     -8.20889357	      0.32024997	      2.41073936	      0.88702945	      1.05756709	     11.90247096	      9.11792059	    -14.89847588	     41.84506418	      0.73033415	     27.02019147	     21.63526413	    -11.66640150	      6.86919422	    100.88110477	      1.76070743	      1.87295630
     15.40666667	     -1.29714324	     -7.37368129	      0.88048209	      2.41158063	      0.89056527	      1.05747088	      8.90864852	      8.48879071	    -14.84542257	     39.82783382	      0.69512683	     26.78456877	     23.02569209	    -10.56183543	      7.03892148	     99.51785334	      1.73691421	      2.14851690
     15.41333333	     -1.21269041	     -6.47700165	      1.42751465	      2.41283422	      0.89427847	      1.05745630	      5.98971993	      7.83761211	    -14.86031953	     37.58692337	      0.65601557	     26.10715818	     24.41038677	     -9.46276975	      6.99290348	     97.81592923	      1.70721003	      2.47270471
     15.42000000	     -1.07496333	     -5.54992527	      1.90399165	      2.41457654	      0.89840891	      1.05761846	      2.89429769	      7.21366535	    -14.87490768	     35.08936011	      0.61242487	     24.94382666	     25.49649809	     -8.48489513	      6.63258126	     95.75659853	      1.67126792	      2.85173499
     15.42666667	     -0.92258465	     -4.56051672	      2.22780814	      2.41665889	      0.90284046	      1.05801588	     -0.27167172	      6.58429424	    -14.76077611	     32.43170228	      0.56603999	     23.26865518	     26.31175849	     -7.58786805	      5.92798658	     93.35378463	      1.62933091	      3.32143752
     15.43333333	     -2.09226176	     -3.61421292	      2.29511284	      2.41886033	      0.90558710	      1.05860316	     -1.79792972	      5.84181269	    -14.73473328	     30.19002016	      0.52691525	     21.31589086	     28.46106965	     -6.84845840	      4.87800523	     90.85805242	      1.58577217	      3.87441711
     15.44000000	     -0.95634456	     -2.47120057	      2.60678022	      2.42167783	      0.91165489	      1.05907737	     -6.18299555	      5.18033921	    -14.57442815	     27.03844381	      0.47190987	     18.43163047	     27.70963234	     -5.96125937	      3.77427206	     87.72941710	      1.53116718	      4.44518627
     15.44666667	     -1.08825978	     -1.35339284	      2.60383648	      2.42440753	      0.91604778	      1.05978853	     -8.88435431	      4.34960917	    -14.45337020	     24.45435336	      0.42680898	     15.36610949	     28.25039941	     -5.22930546	      2.27024251	     84.51998670	      1.47515205	      4.90733092
     15.45333333	     -1.34759624	     -0.32919797	      2.63166572	      2.42717430	      0.92022329	      1.06040110	    -11.31212501	      3.57693429	    -14.49242043	     22.01066155	      0.38415851	     11.85471961	     28.81641477	     -4.55739876	      0.76601886	     81.11628368	      1.41574623	      5.41656641
     15.46000000	     -1.63292852	      0.74417304	      2.50728166	      2.43002705	      0.92438519	      1.06107560	    -13.53632317	      2.67073388	    -14.51340770	     19.79854401	      0.34554978	      8.09245914	     29.21560335	     -3.91454996	     -1.02136278	     77.44359029	      1.35164564	      5.82285110
     15.46666667	     -2.01615898	      1.73291900	      2.39971244	      2.43278223	      0.92837162	      1.06157789	    -15.45662869	      1.79463523	    -14.67490735	     17.83449546	      0.31127067	      4.11529831	     29.61547875	     -3.30081917	     -2.81979407	     73.57023827	      1.28404289	      6.16126651
     15.47333333	     -2.46534395	      2.64713204	      2.29565666	      2.43543559	      0.93221952	      1.06190421	    -17.09510423	      0.93358549	    -14.96167259	     16.15354402	      0.28193253	      0.06634558	     29.97032841	     -2.70023908	     -4.64037988	     69.48150463	      1.21268102	      6.39988367
     15.48000000	     -3.00616723	      3.47069986	      2.26089378	      2.43791123	      0.93586913	      1.06193740	    -18.41705682	      0.11713069	    -15.43698309	     14.79267256	      0.25818084	     -3.90855582	     30.33065986	     -2.06222773	     -6.37945901	     65.19049209	      1.13778873	      6.52644265
     15.48666667	     -3.63310864	      4.18538875	      2.26912677	      2.44016412	      0.93930909	      1.06165889	    -19.41617965	     -0.64553674	    -16.03529798	     13.79013706	      0.24068330	     -7.67322181	     30.68816754	     -1.39156055	     -8.01964661	     60.69669478	      1.05935717	      6.56751382
     15.49333333	     -4.32891043	      4.76416645	      2.35058962	      2.44217605	      0.94251427	      1.06104634	    -20.13348513	     -1.31596290	    -16.78488464	     13.13081751	      0.22917600	    -11.12789630	     31.04149661	     -0.69412777	     -9.49622283	     56.02516594	      0.97782361	      6.51540820
     15.50000000	     -5.13055420	      5.22018175	      2.55336378	      2.44386702	      0.94538087	      1.06000613	    -20.51042658	     -1.91305019	    -17.75142753	     12.90162412	      0.22517582	    -14.11985129	     31.44393256	      0.11664173	    -10.67753691	     51.18732592	      0.89338737	      6.38848777
     15.50666667	     -6.06539361	      5.50537483	      2.87456844	      2.44520903	      0.94777700	      1.05854098	    -20.50962205	     -2.41150094	    -18.93755096	     13.15221517	      0.22954946	    -16.58685599	     31.94412919	      0.99090198	    -11.49510936	     46.23323518	      0.80692218	      6.23613425
